<svg xmlns="http://www.w3.org/2000/svg" width="1920" height="760" viewBox="0 0 1920 760" font-family="DejaVu Sans, sans-serif">
<defs>
<radialGradient id="field" cx="0.3" cy="0.3" r="0.9"><stop offset="0" stop-color="#0b1626"/><stop offset="1" stop-color="#04070d"/></radialGradient>
<filter id="blur12"><feGaussianBlur stdDeviation="6"/></filter><filter id="blur3"><feGaussianBlur stdDeviation="1.5"/></filter><filter id="blur1"><feGaussianBlur stdDeviation="0.8"/></filter>
<filter id="noise"><feTurbulence type="fractalNoise" baseFrequency="0.045" numOctaves="2" seed="7"/><feColorMatrix type="matrix" values="0 0 0 0 0.35 0 0 0 0 0.6 0 0 0 0 0.7 0 0 0 0.22 0"/></filter>
<radialGradient id="halo0"><stop offset="0.72" stop-color="#a6f4ff" stop-opacity="0.34"/><stop offset="1" stop-color="#a6f4ff" stop-opacity="0"/></radialGradient>
<radialGradient id="body0" cx="0.36" cy="0.34" r="0.78"><stop offset="0" stop-color="#1d636c" stop-opacity="0.85"/><stop offset="0.55" stop-color="#102426" stop-opacity="0.6"/><stop offset="0.9" stop-color="#22c1d6" stop-opacity="0.55"/><stop offset="1" stop-color="#a6f4ff" stop-opacity="0.45"/></radialGradient>
<linearGradient id="rim0" x1="0" y1="0" x2="1" y2="1"><stop offset="0" stop-color="#ffffff"/><stop offset="0.25" stop-color="#a6f4ff"/><stop offset="0.7" stop-color="#22c1d6"/><stop offset="1" stop-color="#a6f4ff"/></linearGradient>
<radialGradient id="nuc0" cx="0.4" cy="0.38" r="0.7"><stop offset="0" stop-color="#6fdcef"/><stop offset="1" stop-color="#147480"/></radialGradient>
<radialGradient id="halo1"><stop offset="0.72" stop-color="#ffd0c8" stop-opacity="0.34"/><stop offset="1" stop-color="#ffd0c8" stop-opacity="0"/></radialGradient>
<radialGradient id="body1" cx="0.36" cy="0.34" r="0.78"><stop offset="0" stop-color="#ac2113" stop-opacity="0.85"/><stop offset="0.55" stop-color="#3b1511" stop-opacity="0.6"/><stop offset="0.9" stop-color="#ff6b5c" stop-opacity="0.55"/><stop offset="1" stop-color="#ffd0c8" stop-opacity="0.45"/></radialGradient>
<linearGradient id="rim1" x1="0" y1="0" x2="1" y2="1"><stop offset="0" stop-color="#ffffff"/><stop offset="0.25" stop-color="#ffd0c8"/><stop offset="0.7" stop-color="#ff6b5c"/><stop offset="1" stop-color="#ffd0c8"/></linearGradient>
<radialGradient id="nuc1" cx="0.4" cy="0.38" r="0.7"><stop offset="0" stop-color="#ff9a8c"/><stop offset="1" stop-color="#d01300"/></radialGradient>
<radialGradient id="halo2"><stop offset="0.72" stop-color="#dcffb0" stop-opacity="0.34"/><stop offset="1" stop-color="#dcffb0" stop-opacity="0"/></radialGradient>
<radialGradient id="body2" cx="0.36" cy="0.34" r="0.78"><stop offset="0" stop-color="#456a1c" stop-opacity="0.85"/><stop offset="0.55" stop-color="#1b2610" stop-opacity="0.6"/><stop offset="0.9" stop-color="#7ed321" stop-opacity="0.55"/><stop offset="1" stop-color="#dcffb0" stop-opacity="0.45"/></radialGradient>
<linearGradient id="rim2" x1="0" y1="0" x2="1" y2="1"><stop offset="0" stop-color="#ffffff"/><stop offset="0.25" stop-color="#dcffb0"/><stop offset="0.7" stop-color="#7ed321"/><stop offset="1" stop-color="#dcffb0"/></linearGradient>
<radialGradient id="nuc2" cx="0.4" cy="0.38" r="0.7"><stop offset="0" stop-color="#b5ef62"/><stop offset="1" stop-color="#4c7f14"/></radialGradient>
<radialGradient id="halo3"><stop offset="0.72" stop-color="#d2c4ff" stop-opacity="0.34"/><stop offset="1" stop-color="#d2c4ff" stop-opacity="0"/></radialGradient>
<radialGradient id="body3" cx="0.36" cy="0.34" r="0.78"><stop offset="0" stop-color="#381f98" stop-opacity="0.85"/><stop offset="0.55" stop-color="#1b1435" stop-opacity="0.6"/><stop offset="0.9" stop-color="#7b5cf0" stop-opacity="0.55"/><stop offset="1" stop-color="#d2c4ff" stop-opacity="0.45"/></radialGradient>
<linearGradient id="rim3" x1="0" y1="0" x2="1" y2="1"><stop offset="0" stop-color="#ffffff"/><stop offset="0.25" stop-color="#d2c4ff"/><stop offset="0.7" stop-color="#7b5cf0"/><stop offset="1" stop-color="#d2c4ff"/></linearGradient>
<radialGradient id="nuc3" cx="0.4" cy="0.38" r="0.7"><stop offset="0" stop-color="#a995ff"/><stop offset="1" stop-color="#3311b6"/></radialGradient>
<radialGradient id="halo4"><stop offset="0.72" stop-color="#ffe7a3" stop-opacity="0.34"/><stop offset="1" stop-color="#ffe7a3" stop-opacity="0"/></radialGradient>
<radialGradient id="body4" cx="0.36" cy="0.34" r="0.78"><stop offset="0" stop-color="#75571d" stop-opacity="0.85"/><stop offset="0.55" stop-color="#292111" stop-opacity="0.6"/><stop offset="0.9" stop-color="#e0a12a" stop-opacity="0.55"/><stop offset="1" stop-color="#ffe7a3" stop-opacity="0.45"/></radialGradient>
<linearGradient id="rim4" x1="0" y1="0" x2="1" y2="1"><stop offset="0" stop-color="#ffffff"/><stop offset="0.25" stop-color="#ffe7a3"/><stop offset="0.7" stop-color="#e0a12a"/><stop offset="1" stop-color="#ffe7a3"/></linearGradient>
<radialGradient id="nuc4" cx="0.4" cy="0.38" r="0.7"><stop offset="0" stop-color="#f5c85c"/><stop offset="1" stop-color="#8b6214"/></radialGradient>
<radialGradient id="halo5"><stop offset="0.72" stop-color="#b2cfff" stop-opacity="0.34"/><stop offset="1" stop-color="#b2cfff" stop-opacity="0"/></radialGradient>
<radialGradient id="body5" cx="0.36" cy="0.34" r="0.78"><stop offset="0" stop-color="#163f87" stop-opacity="0.85"/><stop offset="0.55" stop-color="#101b2f" stop-opacity="0.6"/><stop offset="0.9" stop-color="#2a74f4" stop-opacity="0.55"/><stop offset="1" stop-color="#b2cfff" stop-opacity="0.45"/></radialGradient>
<linearGradient id="rim5" x1="0" y1="0" x2="1" y2="1"><stop offset="0" stop-color="#ffffff"/><stop offset="0.25" stop-color="#b2cfff"/><stop offset="0.7" stop-color="#2a74f4"/><stop offset="1" stop-color="#b2cfff"/></linearGradient>
<radialGradient id="nuc5" cx="0.4" cy="0.38" r="0.7"><stop offset="0" stop-color="#71a1f4"/><stop offset="1" stop-color="#0841a3"/></radialGradient>
<radialGradient id="halo6"><stop offset="0.72" stop-color="#ffb3ec" stop-opacity="0.34"/><stop offset="1" stop-color="#ffb3ec" stop-opacity="0"/></radialGradient>
<radialGradient id="body6" cx="0.36" cy="0.34" r="0.78"><stop offset="0" stop-color="#72255f" stop-opacity="0.85"/><stop offset="0.55" stop-color="#291424" stop-opacity="0.6"/><stop offset="0.9" stop-color="#d43fb0" stop-opacity="0.55"/><stop offset="1" stop-color="#ffb3ec" stop-opacity="0.45"/></radialGradient>
<linearGradient id="rim6" x1="0" y1="0" x2="1" y2="1"><stop offset="0" stop-color="#ffffff"/><stop offset="0.25" stop-color="#ffb3ec"/><stop offset="0.7" stop-color="#d43fb0"/><stop offset="1" stop-color="#ffb3ec"/></linearGradient>
<radialGradient id="nuc6" cx="0.4" cy="0.38" r="0.7"><stop offset="0" stop-color="#f07ad2"/><stop offset="1" stop-color="#871e6e"/></radialGradient>
<radialGradient id="halo7"><stop offset="0.72" stop-color="#b2ffe3" stop-opacity="0.34"/><stop offset="1" stop-color="#b2ffe3" stop-opacity="0"/></radialGradient>
<radialGradient id="body7" cx="0.36" cy="0.34" r="0.78"><stop offset="0" stop-color="#1e6e51" stop-opacity="0.85"/><stop offset="0.55" stop-color="#11271f" stop-opacity="0.6"/><stop offset="0.9" stop-color="#24db98" stop-opacity="0.55"/><stop offset="1" stop-color="#b2ffe3" stop-opacity="0.45"/></radialGradient>
<linearGradient id="rim7" x1="0" y1="0" x2="1" y2="1"><stop offset="0" stop-color="#ffffff"/><stop offset="0.25" stop-color="#b2ffe3"/><stop offset="0.7" stop-color="#24db98"/><stop offset="1" stop-color="#b2ffe3"/></linearGradient>
<radialGradient id="nuc7" cx="0.4" cy="0.38" r="0.7"><stop offset="0" stop-color="#71f4c4"/><stop offset="1" stop-color="#16835b"/></radialGradient>
</defs>
<rect width="1920" height="760" fill="url(#field)"/>
<text x="40" y="52" fill="#cfdbe6" font-size="30" font-weight="bold">EVOLUTION · VISUAL-STYLE.md evidence — the eight player palettes (#34)</text>
<text x="40" y="80" fill="#7d8da1" font-size="15">palette index 0–7 = seat order · six hues from concept sheet 01, Azure (5) and Mint (7) added so PLAYER_PALETTE_COUNT = MAX_PLAYERS_PER_GAME = 8 · same lightness ramp on every row · bottom strip: far-LOD rim dots at the 3 px floor</text>
<circle cx="140" cy="260" r="66.6" fill="url(#halo0)" filter="url(#blur12)"/>
<circle cx="140" cy="260" r="52" fill="url(#body0)"/>
<clipPath id="clip0"><circle cx="140" cy="260" r="52"/></clipPath><g clip-path="url(#clip0)"><rect x="88" y="208" width="104" height="104" fill="#8cc" filter="url(#noise)" opacity="0.5"/></g>
<ellipse cx="155.6" cy="278.2" rx="31.2" ry="23.4" fill="#000" opacity="0.35" filter="url(#blur12)"/>
<circle cx="140" cy="260" r="49.1" fill="none" stroke="#124e56" stroke-width="5.7" opacity="0.55"/>
<ellipse cx="163.4" cy="249.6" rx="4.2" ry="2.1" transform="rotate(20 163.4 249.6)" fill="#ffb15a" stroke="#ffd39a" stroke-width="0.8"/>
<ellipse cx="119.2" cy="278.2" rx="4.2" ry="2.1" transform="rotate(50 119.2 278.2)" fill="#ffb15a" stroke="#ffd39a" stroke-width="0.8"/>
<ellipse cx="147.8" cy="286.0" rx="4.2" ry="2.1" transform="rotate(80 147.8 286.0)" fill="#ffb15a" stroke="#ffd39a" stroke-width="0.8"/>
<circle cx="133.8" cy="253.8" r="25.0" fill="#6fdcef" opacity="0.25" filter="url(#blur12)"/>
<circle cx="133.8" cy="253.8" r="15.6" fill="url(#nuc0)" stroke="#a6f4ff" stroke-width="1.2" stroke-opacity="0.8"/>
<circle cx="130.6" cy="250.6" r="3.4" fill="#ffffff" opacity="0.85"/>
<circle cx="140" cy="260" r="52" fill="none" stroke="url(#rim0)" stroke-width="2.6"/>
<circle cx="140" cy="260" r="53.6" fill="none" stroke="#020509" stroke-width="0.8" opacity="0.5"/>
<ellipse cx="116.6" cy="231.4" rx="11.4" ry="4.2" transform="rotate(-35 116.6 231.4)" fill="#fff" opacity="0.5" filter="url(#blur3)"/>
<text x="140" y="354" text-anchor="middle" fill="#cfdbe6" font-size="18" font-weight="bold">0 CYAN</text>
<text x="140" y="376" text-anchor="middle" fill="#7d8da1" font-size="12" font-family="DejaVu Sans Mono, monospace">base #22c1d6 · rim #a6f4ff</text>
<text x="140" y="394" text-anchor="middle" fill="#7d8da1" font-size="12" font-family="DejaVu Sans Mono, monospace">nuc #6fdcef</text>
<rect x="49" y="408" width="22" height="14" rx="2" fill="#22c1d6" stroke="#173250"/>
<rect x="75" y="408" width="22" height="14" rx="2" fill="#a6f4ff" stroke="#173250"/>
<rect x="101" y="408" width="22" height="14" rx="2" fill="#6fdcef" stroke="#173250"/>
<rect x="127" y="408" width="22" height="14" rx="2" fill="#124e56" stroke="#173250"/>
<rect x="153" y="408" width="22" height="14" rx="2" fill="#1d636c" stroke="#173250"/>
<rect x="179" y="408" width="22" height="14" rx="2" fill="#102426" stroke="#173250"/>
<rect x="205" y="408" width="22" height="14" rx="2" fill="#147480" stroke="#173250"/>
<circle cx="373" cy="260" r="66.6" fill="url(#halo1)" filter="url(#blur12)"/>
<circle cx="373" cy="260" r="52" fill="url(#body1)"/>
<clipPath id="clip1"><circle cx="373" cy="260" r="52"/></clipPath><g clip-path="url(#clip1)"><rect x="321" y="208" width="104" height="104" fill="#8cc" filter="url(#noise)" opacity="0.5"/></g>
<ellipse cx="388.6" cy="278.2" rx="31.2" ry="23.4" fill="#000" opacity="0.35" filter="url(#blur12)"/>
<circle cx="373" cy="260" r="49.1" fill="none" stroke="#8a1307" stroke-width="5.7" opacity="0.55"/>
<ellipse cx="396.4" cy="249.6" rx="4.2" ry="2.1" transform="rotate(20 396.4 249.6)" fill="#ffb15a" stroke="#ffd39a" stroke-width="0.8"/>
<ellipse cx="352.2" cy="278.2" rx="4.2" ry="2.1" transform="rotate(50 352.2 278.2)" fill="#ffb15a" stroke="#ffd39a" stroke-width="0.8"/>
<ellipse cx="380.8" cy="286.0" rx="4.2" ry="2.1" transform="rotate(80 380.8 286.0)" fill="#ffb15a" stroke="#ffd39a" stroke-width="0.8"/>
<circle cx="366.8" cy="253.8" r="25.0" fill="#ff9a8c" opacity="0.25" filter="url(#blur12)"/>
<circle cx="366.8" cy="253.8" r="15.6" fill="url(#nuc1)" stroke="#ffd0c8" stroke-width="1.2" stroke-opacity="0.8"/>
<circle cx="363.6" cy="250.6" r="3.4" fill="#ffffff" opacity="0.85"/>
<circle cx="373" cy="260" r="52" fill="none" stroke="url(#rim1)" stroke-width="2.6"/>
<circle cx="373" cy="260" r="53.6" fill="none" stroke="#020509" stroke-width="0.8" opacity="0.5"/>
<ellipse cx="349.6" cy="231.4" rx="11.4" ry="4.2" transform="rotate(-35 349.6 231.4)" fill="#fff" opacity="0.5" filter="url(#blur3)"/>
<text x="373" y="354" text-anchor="middle" fill="#cfdbe6" font-size="18" font-weight="bold">1 CORAL</text>
<text x="373" y="376" text-anchor="middle" fill="#7d8da1" font-size="12" font-family="DejaVu Sans Mono, monospace">base #ff6b5c · rim #ffd0c8</text>
<text x="373" y="394" text-anchor="middle" fill="#7d8da1" font-size="12" font-family="DejaVu Sans Mono, monospace">nuc #ff9a8c</text>
<rect x="282" y="408" width="22" height="14" rx="2" fill="#ff6b5c" stroke="#173250"/>
<rect x="308" y="408" width="22" height="14" rx="2" fill="#ffd0c8" stroke="#173250"/>
<rect x="334" y="408" width="22" height="14" rx="2" fill="#ff9a8c" stroke="#173250"/>
<rect x="360" y="408" width="22" height="14" rx="2" fill="#8a1307" stroke="#173250"/>
<rect x="386" y="408" width="22" height="14" rx="2" fill="#ac2113" stroke="#173250"/>
<rect x="412" y="408" width="22" height="14" rx="2" fill="#3b1511" stroke="#173250"/>
<rect x="438" y="408" width="22" height="14" rx="2" fill="#d01300" stroke="#173250"/>
<circle cx="606" cy="260" r="66.6" fill="url(#halo2)" filter="url(#blur12)"/>
<circle cx="606" cy="260" r="52" fill="url(#body2)"/>
<clipPath id="clip2"><circle cx="606" cy="260" r="52"/></clipPath><g clip-path="url(#clip2)"><rect x="554" y="208" width="104" height="104" fill="#8cc" filter="url(#noise)" opacity="0.5"/></g>
<ellipse cx="621.6" cy="278.2" rx="31.2" ry="23.4" fill="#000" opacity="0.35" filter="url(#blur12)"/>
<circle cx="606" cy="260" r="49.1" fill="none" stroke="#355512" stroke-width="5.7" opacity="0.55"/>
<ellipse cx="629.4" cy="249.6" rx="4.2" ry="2.1" transform="rotate(20 629.4 249.6)" fill="#ffb15a" stroke="#ffd39a" stroke-width="0.8"/>
<ellipse cx="585.2" cy="278.2" rx="4.2" ry="2.1" transform="rotate(50 585.2 278.2)" fill="#ffb15a" stroke="#ffd39a" stroke-width="0.8"/>
<ellipse cx="613.8" cy="286.0" rx="4.2" ry="2.1" transform="rotate(80 613.8 286.0)" fill="#ffb15a" stroke="#ffd39a" stroke-width="0.8"/>
<circle cx="599.8" cy="253.8" r="25.0" fill="#b5ef62" opacity="0.25" filter="url(#blur12)"/>
<circle cx="599.8" cy="253.8" r="15.6" fill="url(#nuc2)" stroke="#dcffb0" stroke-width="1.2" stroke-opacity="0.8"/>
<circle cx="596.6" cy="250.6" r="3.4" fill="#ffffff" opacity="0.85"/>
<circle cx="606" cy="260" r="52" fill="none" stroke="url(#rim2)" stroke-width="2.6"/>
<circle cx="606" cy="260" r="53.6" fill="none" stroke="#020509" stroke-width="0.8" opacity="0.5"/>
<ellipse cx="582.6" cy="231.4" rx="11.4" ry="4.2" transform="rotate(-35 582.6 231.4)" fill="#fff" opacity="0.5" filter="url(#blur3)"/>
<text x="606" y="354" text-anchor="middle" fill="#cfdbe6" font-size="18" font-weight="bold">2 LIME</text>
<text x="606" y="376" text-anchor="middle" fill="#7d8da1" font-size="12" font-family="DejaVu Sans Mono, monospace">base #7ed321 · rim #dcffb0</text>
<text x="606" y="394" text-anchor="middle" fill="#7d8da1" font-size="12" font-family="DejaVu Sans Mono, monospace">nuc #b5ef62</text>
<rect x="515" y="408" width="22" height="14" rx="2" fill="#7ed321" stroke="#173250"/>
<rect x="541" y="408" width="22" height="14" rx="2" fill="#dcffb0" stroke="#173250"/>
<rect x="567" y="408" width="22" height="14" rx="2" fill="#b5ef62" stroke="#173250"/>
<rect x="593" y="408" width="22" height="14" rx="2" fill="#355512" stroke="#173250"/>
<rect x="619" y="408" width="22" height="14" rx="2" fill="#456a1c" stroke="#173250"/>
<rect x="645" y="408" width="22" height="14" rx="2" fill="#1b2610" stroke="#173250"/>
<rect x="671" y="408" width="22" height="14" rx="2" fill="#4c7f14" stroke="#173250"/>
<circle cx="839" cy="260" r="66.6" fill="url(#halo3)" filter="url(#blur12)"/>
<circle cx="839" cy="260" r="52" fill="url(#body3)"/>
<clipPath id="clip3"><circle cx="839" cy="260" r="52"/></clipPath><g clip-path="url(#clip3)"><rect x="787" y="208" width="104" height="104" fill="#8cc" filter="url(#noise)" opacity="0.5"/></g>
<ellipse cx="854.6" cy="278.2" rx="31.2" ry="23.4" fill="#000" opacity="0.35" filter="url(#blur12)"/>
<circle cx="839" cy="260" r="49.1" fill="none" stroke="#27127a" stroke-width="5.7" opacity="0.55"/>
<ellipse cx="862.4" cy="249.6" rx="4.2" ry="2.1" transform="rotate(20 862.4 249.6)" fill="#ffb15a" stroke="#ffd39a" stroke-width="0.8"/>
<ellipse cx="818.2" cy="278.2" rx="4.2" ry="2.1" transform="rotate(50 818.2 278.2)" fill="#ffb15a" stroke="#ffd39a" stroke-width="0.8"/>
<ellipse cx="846.8" cy="286.0" rx="4.2" ry="2.1" transform="rotate(80 846.8 286.0)" fill="#ffb15a" stroke="#ffd39a" stroke-width="0.8"/>
<circle cx="832.8" cy="253.8" r="25.0" fill="#a995ff" opacity="0.25" filter="url(#blur12)"/>
<circle cx="832.8" cy="253.8" r="15.6" fill="url(#nuc3)" stroke="#d2c4ff" stroke-width="1.2" stroke-opacity="0.8"/>
<circle cx="829.6" cy="250.6" r="3.4" fill="#ffffff" opacity="0.85"/>
<circle cx="839" cy="260" r="52" fill="none" stroke="url(#rim3)" stroke-width="2.6"/>
<circle cx="839" cy="260" r="53.6" fill="none" stroke="#020509" stroke-width="0.8" opacity="0.5"/>
<ellipse cx="815.6" cy="231.4" rx="11.4" ry="4.2" transform="rotate(-35 815.6 231.4)" fill="#fff" opacity="0.5" filter="url(#blur3)"/>
<text x="839" y="354" text-anchor="middle" fill="#cfdbe6" font-size="18" font-weight="bold">3 VIOLET</text>
<text x="839" y="376" text-anchor="middle" fill="#7d8da1" font-size="12" font-family="DejaVu Sans Mono, monospace">base #7b5cf0 · rim #d2c4ff</text>
<text x="839" y="394" text-anchor="middle" fill="#7d8da1" font-size="12" font-family="DejaVu Sans Mono, monospace">nuc #a995ff</text>
<rect x="748" y="408" width="22" height="14" rx="2" fill="#7b5cf0" stroke="#173250"/>
<rect x="774" y="408" width="22" height="14" rx="2" fill="#d2c4ff" stroke="#173250"/>
<rect x="800" y="408" width="22" height="14" rx="2" fill="#a995ff" stroke="#173250"/>
<rect x="826" y="408" width="22" height="14" rx="2" fill="#27127a" stroke="#173250"/>
<rect x="852" y="408" width="22" height="14" rx="2" fill="#381f98" stroke="#173250"/>
<rect x="878" y="408" width="22" height="14" rx="2" fill="#1b1435" stroke="#173250"/>
<rect x="904" y="408" width="22" height="14" rx="2" fill="#3311b6" stroke="#173250"/>
<circle cx="1072" cy="260" r="66.6" fill="url(#halo4)" filter="url(#blur12)"/>
<circle cx="1072" cy="260" r="52" fill="url(#body4)"/>
<clipPath id="clip4"><circle cx="1072" cy="260" r="52"/></clipPath><g clip-path="url(#clip4)"><rect x="1020" y="208" width="104" height="104" fill="#8cc" filter="url(#noise)" opacity="0.5"/></g>
<ellipse cx="1087.6" cy="278.2" rx="31.2" ry="23.4" fill="#000" opacity="0.35" filter="url(#blur12)"/>
<circle cx="1072" cy="260" r="49.1" fill="none" stroke="#5d4312" stroke-width="5.7" opacity="0.55"/>
<ellipse cx="1095.4" cy="249.6" rx="4.2" ry="2.1" transform="rotate(20 1095.4 249.6)" fill="#ffb15a" stroke="#ffd39a" stroke-width="0.8"/>
<ellipse cx="1051.2" cy="278.2" rx="4.2" ry="2.1" transform="rotate(50 1051.2 278.2)" fill="#ffb15a" stroke="#ffd39a" stroke-width="0.8"/>
<ellipse cx="1079.8" cy="286.0" rx="4.2" ry="2.1" transform="rotate(80 1079.8 286.0)" fill="#ffb15a" stroke="#ffd39a" stroke-width="0.8"/>
<circle cx="1065.8" cy="253.8" r="25.0" fill="#f5c85c" opacity="0.25" filter="url(#blur12)"/>
<circle cx="1065.8" cy="253.8" r="15.6" fill="url(#nuc4)" stroke="#ffe7a3" stroke-width="1.2" stroke-opacity="0.8"/>
<circle cx="1062.6" cy="250.6" r="3.4" fill="#ffffff" opacity="0.85"/>
<circle cx="1072" cy="260" r="52" fill="none" stroke="url(#rim4)" stroke-width="2.6"/>
<circle cx="1072" cy="260" r="53.6" fill="none" stroke="#020509" stroke-width="0.8" opacity="0.5"/>
<ellipse cx="1048.6" cy="231.4" rx="11.4" ry="4.2" transform="rotate(-35 1048.6 231.4)" fill="#fff" opacity="0.5" filter="url(#blur3)"/>
<text x="1072" y="354" text-anchor="middle" fill="#cfdbe6" font-size="18" font-weight="bold">4 AMBER</text>
<text x="1072" y="376" text-anchor="middle" fill="#7d8da1" font-size="12" font-family="DejaVu Sans Mono, monospace">base #e0a12a · rim #ffe7a3</text>
<text x="1072" y="394" text-anchor="middle" fill="#7d8da1" font-size="12" font-family="DejaVu Sans Mono, monospace">nuc #f5c85c</text>
<rect x="981" y="408" width="22" height="14" rx="2" fill="#e0a12a" stroke="#173250"/>
<rect x="1007" y="408" width="22" height="14" rx="2" fill="#ffe7a3" stroke="#173250"/>
<rect x="1033" y="408" width="22" height="14" rx="2" fill="#f5c85c" stroke="#173250"/>
<rect x="1059" y="408" width="22" height="14" rx="2" fill="#5d4312" stroke="#173250"/>
<rect x="1085" y="408" width="22" height="14" rx="2" fill="#75571d" stroke="#173250"/>
<rect x="1111" y="408" width="22" height="14" rx="2" fill="#292111" stroke="#173250"/>
<rect x="1137" y="408" width="22" height="14" rx="2" fill="#8b6214" stroke="#173250"/>
<circle cx="1305" cy="260" r="66.6" fill="url(#halo5)" filter="url(#blur12)"/>
<circle cx="1305" cy="260" r="52" fill="url(#body5)"/>
<clipPath id="clip5"><circle cx="1305" cy="260" r="52"/></clipPath><g clip-path="url(#clip5)"><rect x="1253" y="208" width="104" height="104" fill="#8cc" filter="url(#noise)" opacity="0.5"/></g>
<ellipse cx="1320.6" cy="278.2" rx="31.2" ry="23.4" fill="#000" opacity="0.35" filter="url(#blur12)"/>
<circle cx="1305" cy="260" r="49.1" fill="none" stroke="#0b2f6d" stroke-width="5.7" opacity="0.55"/>
<ellipse cx="1328.4" cy="249.6" rx="4.2" ry="2.1" transform="rotate(20 1328.4 249.6)" fill="#ffb15a" stroke="#ffd39a" stroke-width="0.8"/>
<ellipse cx="1284.2" cy="278.2" rx="4.2" ry="2.1" transform="rotate(50 1284.2 278.2)" fill="#ffb15a" stroke="#ffd39a" stroke-width="0.8"/>
<ellipse cx="1312.8" cy="286.0" rx="4.2" ry="2.1" transform="rotate(80 1312.8 286.0)" fill="#ffb15a" stroke="#ffd39a" stroke-width="0.8"/>
<circle cx="1298.8" cy="253.8" r="25.0" fill="#71a1f4" opacity="0.25" filter="url(#blur12)"/>
<circle cx="1298.8" cy="253.8" r="15.6" fill="url(#nuc5)" stroke="#b2cfff" stroke-width="1.2" stroke-opacity="0.8"/>
<circle cx="1295.6" cy="250.6" r="3.4" fill="#ffffff" opacity="0.85"/>
<circle cx="1305" cy="260" r="52" fill="none" stroke="url(#rim5)" stroke-width="2.6"/>
<circle cx="1305" cy="260" r="53.6" fill="none" stroke="#020509" stroke-width="0.8" opacity="0.5"/>
<ellipse cx="1281.6" cy="231.4" rx="11.4" ry="4.2" transform="rotate(-35 1281.6 231.4)" fill="#fff" opacity="0.5" filter="url(#blur3)"/>
<text x="1305" y="354" text-anchor="middle" fill="#cfdbe6" font-size="18" font-weight="bold">5 AZURE</text>
<text x="1305" y="376" text-anchor="middle" fill="#7d8da1" font-size="12" font-family="DejaVu Sans Mono, monospace">base #2a74f4 · rim #b2cfff</text>
<text x="1305" y="394" text-anchor="middle" fill="#7d8da1" font-size="12" font-family="DejaVu Sans Mono, monospace">nuc #71a1f4</text>
<rect x="1214" y="408" width="22" height="14" rx="2" fill="#2a74f4" stroke="#173250"/>
<rect x="1240" y="408" width="22" height="14" rx="2" fill="#b2cfff" stroke="#173250"/>
<rect x="1266" y="408" width="22" height="14" rx="2" fill="#71a1f4" stroke="#173250"/>
<rect x="1292" y="408" width="22" height="14" rx="2" fill="#0b2f6d" stroke="#173250"/>
<rect x="1318" y="408" width="22" height="14" rx="2" fill="#163f87" stroke="#173250"/>
<rect x="1344" y="408" width="22" height="14" rx="2" fill="#101b2f" stroke="#173250"/>
<rect x="1370" y="408" width="22" height="14" rx="2" fill="#0841a3" stroke="#173250"/>
<circle cx="1538" cy="260" r="66.6" fill="url(#halo6)" filter="url(#blur12)"/>
<circle cx="1538" cy="260" r="52" fill="url(#body6)"/>
<clipPath id="clip6"><circle cx="1538" cy="260" r="52"/></clipPath><g clip-path="url(#clip6)"><rect x="1486" y="208" width="104" height="104" fill="#8cc" filter="url(#noise)" opacity="0.5"/></g>
<ellipse cx="1553.6" cy="278.2" rx="31.2" ry="23.4" fill="#000" opacity="0.35" filter="url(#blur12)"/>
<circle cx="1538" cy="260" r="49.1" fill="none" stroke="#5b194b" stroke-width="5.7" opacity="0.55"/>
<ellipse cx="1561.4" cy="249.6" rx="4.2" ry="2.1" transform="rotate(20 1561.4 249.6)" fill="#ffb15a" stroke="#ffd39a" stroke-width="0.8"/>
<ellipse cx="1517.2" cy="278.2" rx="4.2" ry="2.1" transform="rotate(50 1517.2 278.2)" fill="#ffb15a" stroke="#ffd39a" stroke-width="0.8"/>
<ellipse cx="1545.8" cy="286.0" rx="4.2" ry="2.1" transform="rotate(80 1545.8 286.0)" fill="#ffb15a" stroke="#ffd39a" stroke-width="0.8"/>
<circle cx="1531.8" cy="253.8" r="25.0" fill="#f07ad2" opacity="0.25" filter="url(#blur12)"/>
<circle cx="1531.8" cy="253.8" r="15.6" fill="url(#nuc6)" stroke="#ffb3ec" stroke-width="1.2" stroke-opacity="0.8"/>
<circle cx="1528.6" cy="250.6" r="3.4" fill="#ffffff" opacity="0.85"/>
<circle cx="1538" cy="260" r="52" fill="none" stroke="url(#rim6)" stroke-width="2.6"/>
<circle cx="1538" cy="260" r="53.6" fill="none" stroke="#020509" stroke-width="0.8" opacity="0.5"/>
<ellipse cx="1514.6" cy="231.4" rx="11.4" ry="4.2" transform="rotate(-35 1514.6 231.4)" fill="#fff" opacity="0.5" filter="url(#blur3)"/>
<text x="1538" y="354" text-anchor="middle" fill="#cfdbe6" font-size="18" font-weight="bold">6 MAGENTA</text>
<text x="1538" y="376" text-anchor="middle" fill="#7d8da1" font-size="12" font-family="DejaVu Sans Mono, monospace">base #d43fb0 · rim #ffb3ec</text>
<text x="1538" y="394" text-anchor="middle" fill="#7d8da1" font-size="12" font-family="DejaVu Sans Mono, monospace">nuc #f07ad2</text>
<rect x="1447" y="408" width="22" height="14" rx="2" fill="#d43fb0" stroke="#173250"/>
<rect x="1473" y="408" width="22" height="14" rx="2" fill="#ffb3ec" stroke="#173250"/>
<rect x="1499" y="408" width="22" height="14" rx="2" fill="#f07ad2" stroke="#173250"/>
<rect x="1525" y="408" width="22" height="14" rx="2" fill="#5b194b" stroke="#173250"/>
<rect x="1551" y="408" width="22" height="14" rx="2" fill="#72255f" stroke="#173250"/>
<rect x="1577" y="408" width="22" height="14" rx="2" fill="#291424" stroke="#173250"/>
<rect x="1603" y="408" width="22" height="14" rx="2" fill="#871e6e" stroke="#173250"/>
<circle cx="1771" cy="260" r="66.6" fill="url(#halo7)" filter="url(#blur12)"/>
<circle cx="1771" cy="260" r="52" fill="url(#body7)"/>
<clipPath id="clip7"><circle cx="1771" cy="260" r="52"/></clipPath><g clip-path="url(#clip7)"><rect x="1719" y="208" width="104" height="104" fill="#8cc" filter="url(#noise)" opacity="0.5"/></g>
<ellipse cx="1786.6" cy="278.2" rx="31.2" ry="23.4" fill="#000" opacity="0.35" filter="url(#blur12)"/>
<circle cx="1771" cy="260" r="49.1" fill="none" stroke="#13583f" stroke-width="5.7" opacity="0.55"/>
<ellipse cx="1794.4" cy="249.6" rx="4.2" ry="2.1" transform="rotate(20 1794.4 249.6)" fill="#ffb15a" stroke="#ffd39a" stroke-width="0.8"/>
<ellipse cx="1750.2" cy="278.2" rx="4.2" ry="2.1" transform="rotate(50 1750.2 278.2)" fill="#ffb15a" stroke="#ffd39a" stroke-width="0.8"/>
<ellipse cx="1778.8" cy="286.0" rx="4.2" ry="2.1" transform="rotate(80 1778.8 286.0)" fill="#ffb15a" stroke="#ffd39a" stroke-width="0.8"/>
<circle cx="1764.8" cy="253.8" r="25.0" fill="#71f4c4" opacity="0.25" filter="url(#blur12)"/>
<circle cx="1764.8" cy="253.8" r="15.6" fill="url(#nuc7)" stroke="#b2ffe3" stroke-width="1.2" stroke-opacity="0.8"/>
<circle cx="1761.6" cy="250.6" r="3.4" fill="#ffffff" opacity="0.85"/>
<circle cx="1771" cy="260" r="52" fill="none" stroke="url(#rim7)" stroke-width="2.6"/>
<circle cx="1771" cy="260" r="53.6" fill="none" stroke="#020509" stroke-width="0.8" opacity="0.5"/>
<ellipse cx="1747.6" cy="231.4" rx="11.4" ry="4.2" transform="rotate(-35 1747.6 231.4)" fill="#fff" opacity="0.5" filter="url(#blur3)"/>
<text x="1771" y="354" text-anchor="middle" fill="#cfdbe6" font-size="18" font-weight="bold">7 MINT</text>
<text x="1771" y="376" text-anchor="middle" fill="#7d8da1" font-size="12" font-family="DejaVu Sans Mono, monospace">base #24db98 · rim #b2ffe3</text>
<text x="1771" y="394" text-anchor="middle" fill="#7d8da1" font-size="12" font-family="DejaVu Sans Mono, monospace">nuc #71f4c4</text>
<rect x="1680" y="408" width="22" height="14" rx="2" fill="#24db98" stroke="#173250"/>
<rect x="1706" y="408" width="22" height="14" rx="2" fill="#b2ffe3" stroke="#173250"/>
<rect x="1732" y="408" width="22" height="14" rx="2" fill="#71f4c4" stroke="#173250"/>
<rect x="1758" y="408" width="22" height="14" rx="2" fill="#13583f" stroke="#173250"/>
<rect x="1784" y="408" width="22" height="14" rx="2" fill="#1e6e51" stroke="#173250"/>
<rect x="1810" y="408" width="22" height="14" rx="2" fill="#11271f" stroke="#173250"/>
<rect x="1836" y="408" width="22" height="14" rx="2" fill="#16835b" stroke="#173250"/>
<text x="960" y="442" text-anchor="middle" fill="#55657a" font-size="12">swatches: base · rim · nucleus · edge (L×0.42) · cytoplasm light (L×0.55) · cytoplasm dark (L×0.22, S×0.55) · nucleus dark (L×0.60) — derived from base in HSL, concept-art README sheet 01</text>
<rect x="40" y="600" width="1840" height="110" rx="10" fill="#04070d" opacity="0.6" stroke="#173250"/>
<text x="60" y="626" fill="#7fe7f5" font-size="14" font-weight="bold">FAR LOD · zoom 0.36 · a spawn-size rival (17.9 wu) is 6.4 px → rim dot at the 3 px floor + halo, no interior; you keep the #a6f4ff ring at 7.5 px</text>
<circle cx="120" cy="670" r="9" fill="#a6f4ff" opacity="0.28" filter="url(#blur3)"/>
<circle cx="120" cy="670" r="3" fill="#a6f4ff"/>
<circle cx="120" cy="670" r="7.5" fill="none" stroke="#a6f4ff" stroke-width="1"/>
<text x="142" y="675" fill="#7d8da1" font-size="13">0 Cyan</text>
<circle cx="340" cy="670" r="9" fill="#ffd0c8" opacity="0.28" filter="url(#blur3)"/>
<circle cx="340" cy="670" r="3" fill="#ffd0c8"/>
<text x="362" y="675" fill="#7d8da1" font-size="13">1 Coral</text>
<circle cx="560" cy="670" r="9" fill="#dcffb0" opacity="0.28" filter="url(#blur3)"/>
<circle cx="560" cy="670" r="3" fill="#dcffb0"/>
<text x="582" y="675" fill="#7d8da1" font-size="13">2 Lime</text>
<circle cx="780" cy="670" r="9" fill="#d2c4ff" opacity="0.28" filter="url(#blur3)"/>
<circle cx="780" cy="670" r="3" fill="#d2c4ff"/>
<text x="802" y="675" fill="#7d8da1" font-size="13">3 Violet</text>
<circle cx="1000" cy="670" r="9" fill="#ffe7a3" opacity="0.28" filter="url(#blur3)"/>
<circle cx="1000" cy="670" r="3" fill="#ffe7a3"/>
<text x="1022" y="675" fill="#7d8da1" font-size="13">4 Amber</text>
<circle cx="1220" cy="670" r="9" fill="#b2cfff" opacity="0.28" filter="url(#blur3)"/>
<circle cx="1220" cy="670" r="3" fill="#b2cfff"/>
<text x="1242" y="675" fill="#7d8da1" font-size="13">5 Azure</text>
<circle cx="1440" cy="670" r="9" fill="#ffb3ec" opacity="0.28" filter="url(#blur3)"/>
<circle cx="1440" cy="670" r="3" fill="#ffb3ec"/>
<text x="1462" y="675" fill="#7d8da1" font-size="13">6 Magenta</text>
<circle cx="1660" cy="670" r="9" fill="#b2ffe3" opacity="0.28" filter="url(#blur3)"/>
<circle cx="1660" cy="670" r="3" fill="#b2ffe3"/>
<text x="1682" y="675" fill="#7d8da1" font-size="13">7 Mint</text>
<text x="1880" y="746" text-anchor="end" fill="#55657a" font-size="12">Evolution · qa/evidence/34/player-palettes.svg · generated by the script in the PR body</text>
</svg>